<svg xmlns="http://www.w3.org/2000/svg" width="427.869" height="101.376" viewBox="0 0 427.869 101.376">
  <defs>
    <style>
      .cls-1 {
        fill: #26a9e0;
      }
      .cls-2 {
        fill: #e71d28;
      }
      .cls-3 {
        fill: #155bcb;
      }
      .cls-4 {
        fill: #ff0;
      }
      .cls-5 {
        fill: #8cc63f;
      }
      .cls-6 {
        fill: #ff8c00;
      }
      .cls-7 {
        fill: #fff;
      }
      .cls-8 {
        fill: #172b75;
      }
    </style>
  </defs>
  <g id="Grupo_403" data-name="Grupo 403" transform="translate(-455.194 -163.326)">
    <g id="Grupo_388" data-name="Grupo 388">
      <circle id="Elipse_15" data-name="Elipse 15" class="cls-1" cx="11.431" cy="11.431" r="11.431" transform="translate(705.052 164.908)"/>
      <g id="Grupo_387" data-name="Grupo 387">
        <path id="Caminho_971" data-name="Caminho 971" class="cls-2" d="M692.608,230.925l-24.882,29.04a2.858,2.858,0,0,0,3.4,4.439l48.816-23.274-18.45-11.185C698.311,230.215,695.322,230.542,692.608,230.925Z"/>
        <path id="Caminho_972" data-name="Caminho 972" class="cls-3" d="M719.942,241.13l32.317,19.59a2.858,2.858,0,0,0,4.28-3.023l-5.618-27.153c-2.288-.272-4.734-.508-7.293-.707Z"/>
        <path id="Caminho_973" data-name="Caminho 973" class="cls-1" d="M723.231,229.077c-7.636,0-15.11.306-21.739.868l18.45,11.185,23.686-11.293C737.328,229.344,730.333,229.077,723.231,229.077Z"/>
        <path id="Caminho_974" data-name="Caminho 974" class="cls-4" d="M716.773,206.2,687.5,188.177a2.858,2.858,0,0,0-4.181,3.417L695.2,224.01c1.336-.155,2.734-.295,4.158-.427Z"/>
        <path id="Caminho_975" data-name="Caminho 975" class="cls-5" d="M758.881,164.173,716.773,206.2l27.875,17.16c2.118.171,4.164.367,6.116.589l12.923-57.122A2.858,2.858,0,0,0,758.881,164.173Z"/>
        <path id="Caminho_976" data-name="Caminho 976" class="cls-6" d="M723.231,222.545c7.561,0,14.849.283,21.417.814L716.773,206.2l-17.417,17.384C706.57,222.915,714.811,222.545,723.231,222.545Z"/>
        <path id="Caminho_977" data-name="Caminho 977" class="cls-7" d="M723.231,222.545c-8.42,0-16.661.37-23.875,1.038-1.424.132-2.822.272-4.158.427h0l1,2.725-3.59,4.19h0c2.714-.383,5.7-.71,8.884-.98,6.629-.562,14.1-.868,21.739-.868,7.1,0,14.1.267,20.4.76,2.559.2,5.005.435,7.293.707h0l-.788-3.809.631-2.787h0c-1.952-.222-4-.418-6.116-.589C738.08,222.828,730.792,222.545,723.231,222.545Z"/>
      </g>
    </g>
    <g id="Grupo_390" data-name="Grupo 390">
      <g id="Grupo_389" data-name="Grupo 389">
        <path id="Caminho_978" data-name="Caminho 978" class="cls-8" d="M475.827,228.325l7.58,2.42a18.322,18.322,0,0,1-3.533,5.627,14.117,14.117,0,0,1-4.906,3.407,17.617,17.617,0,0,1-6.748,1.15,17.27,17.27,0,0,1-7.627-1.4,9.67,9.67,0,0,1-4.406-4.927q-1.6-3.526-.626-9.029,1.293-7.335,5.891-11.276a17.4,17.4,0,0,1,11.736-3.941q5.586,0,8.385,2.26a10.594,10.594,0,0,1,3.525,6.937l-8.383,1.795a5.817,5.817,0,0,0-.539-1.977,4.055,4.055,0,0,0-1.591-1.613,4.805,4.805,0,0,0-2.381-.564,6.522,6.522,0,0,0-5.2,2.5,12.3,12.3,0,0,0-2.277,5.821q-.865,4.915.305,6.739a4.25,4.25,0,0,0,3.873,1.822,5.99,5.99,0,0,0,4.222-1.471A11.323,11.323,0,0,0,475.827,228.325Z"/>
        <path id="Caminho_979" data-name="Caminho 979" class="cls-8" d="M487.033,225.663a18.408,18.408,0,0,1,6.021-11.274A17.8,17.8,0,0,1,505,210.355q7.382,0,10.675,3.964t2.037,11.1a21,21,0,0,1-3.244,8.5,16.1,16.1,0,0,1-5.952,5.162,18.606,18.606,0,0,1-8.545,1.845,17.09,17.09,0,0,1-8-1.593,9.662,9.662,0,0,1-4.425-5.042A15.487,15.487,0,0,1,487.033,225.663Zm9.129.04q-.79,4.478.529,6.433a4.685,4.685,0,0,0,4.183,1.957,6.705,6.705,0,0,0,4.9-1.917q1.952-1.914,2.826-6.876.735-4.176-.609-6.1a4.8,4.8,0,0,0-4.228-1.926,6.641,6.641,0,0,0-4.782,1.956Q496.959,221.186,496.162,225.7Z"/>
        <path id="Caminho_980" data-name="Caminho 980" class="cls-8" d="M524.833,210.86h8.532l8.248,16.356L544.5,210.86h8.612L547.9,240.425h-8.611l-8.21-16.233-2.862,16.233H519.62Z"/>
        <path id="Caminho_981" data-name="Caminho 981" class="cls-8" d="M558.877,210.86H583.36l-1.112,6.313H566.921l-.829,4.7H580.31l-1.063,6.03H565.029L564,233.73h15.771l-1.181,6.7H553.665Z"/>
        <path id="Caminho_982" data-name="Caminho 982" class="cls-8" d="M587.114,210.86h10.064l3.629,9.1,6.7-9.1h9.963l-11.727,14.318,7.381,15.247H602.855l-4.163-9.5-7.514,9.5h-10.2l12.915-15.408Z"/>
        <path id="Caminho_983" data-name="Caminho 983" class="cls-8" d="M636.556,235.544H626.184l-2.3,4.881h-9.328l16.325-29.565h9.966l5.9,29.565h-9.566Zm4.612-32.025h3.187c-.049.35-.095.652-.14.907a5.924,5.924,0,0,1-1.741,3.47,4.489,4.489,0,0,1-3.121,1.229,10.281,10.281,0,0,1-3.724-1.069,6.336,6.336,0,0,0-2.084-.645,1.364,1.364,0,0,0-.972.363,2.4,2.4,0,0,0-.571,1.291h-3.146c.044-.323.087-.6.13-.848a5.793,5.793,0,0,1,1.794-3.427,4.481,4.481,0,0,1,3.048-1.271,5.009,5.009,0,0,1,1.3.161,17.49,17.49,0,0,1,2.156.868,6.449,6.449,0,0,0,2.326.705,1.335,1.335,0,0,0,.944-.373A2.638,2.638,0,0,0,641.168,203.519Zm-5.38,25.632-1.39-10.627-5.1,10.627Z"/>
        <path id="Caminho_984" data-name="Caminho 984" class="cls-8" d="M648.579,225.663a18.408,18.408,0,0,1,6.021-11.274,17.8,17.8,0,0,1,11.945-4.034q7.382,0,10.676,3.964t2.036,11.1a20.985,20.985,0,0,1-3.244,8.5,16.1,16.1,0,0,1-5.952,5.162,18.607,18.607,0,0,1-8.544,1.845,17.089,17.089,0,0,1-8-1.593,9.662,9.662,0,0,1-4.425-5.042A15.487,15.487,0,0,1,648.579,225.663Zm9.129.04q-.789,4.478.529,6.433a4.685,4.685,0,0,0,4.183,1.957,6.7,6.7,0,0,0,4.9-1.917q1.952-1.914,2.826-6.876.736-4.176-.609-6.1a4.8,4.8,0,0,0-4.228-1.926,6.637,6.637,0,0,0-4.781,1.956Q658.5,221.186,657.708,225.7Z"/>
      </g>
    </g>
    <g id="Grupo_402" data-name="Grupo 402">
      <g id="Grupo_401" data-name="Grupo 401">
        <g id="Grupo_392" data-name="Grupo 392">
          <g id="Grupo_391" data-name="Grupo 391">
            <path id="Caminho_985" data-name="Caminho 985" class="cls-8" d="M776.336,233.289l5.579-.054c6.564-.062,10.742-16.585,3.392-16.61l-5.1-.017Zm-4.986-23.055,16.453.019c17.736.02,14.371,29.574-5.4,29.548l-18.118.026Z"/>
          </g>
        </g>
        <g id="Grupo_394" data-name="Grupo 394">
          <g id="Grupo_393" data-name="Grupo 393">
            <path id="Caminho_986" data-name="Caminho 986" class="cls-8" d="M776.336,233.289l5.579-.054c6.564-.062,10.742-16.585,3.392-16.61l-5.1-.017Zm-4.986-23.055,16.453.019c17.736.02,14.371,29.574-5.4,29.548l-18.118.026Z"/>
          </g>
        </g>
        <g id="Grupo_395" data-name="Grupo 395">
          <path id="Caminho_987" data-name="Caminho 987" class="cls-8" d="M838.5,210.234h10.132L841.7,239.929H831.566Z"/>
        </g>
        <g id="Grupo_396" data-name="Grupo 396">
          <path id="Caminho_988" data-name="Caminho 988" class="cls-8" d="M838.5,210.234h10.132L841.7,239.929H831.566Z"/>
        </g>
        <g id="Grupo_397" data-name="Grupo 397">
          <path id="Caminho_989" data-name="Caminho 989" class="cls-8" d="M851.143,210.234h31.92l-1.729,7.294H870.377l-5.51,22.4H854.389l5.487-22.4h-10.4Z"/>
        </g>
        <g id="Grupo_398" data-name="Grupo 398">
          <path id="Caminho_990" data-name="Caminho 990" class="cls-8" d="M851.143,210.234h31.92l-1.729,7.294H870.377l-5.51,22.4H854.389l5.487-22.4h-10.4Z"/>
        </g>
        <g id="Grupo_399" data-name="Grupo 399">
          <path id="Caminho_991" data-name="Caminho 991" class="cls-8" d="M804.463,210.234h9.326l8.4,17.3,4.126-17.3H835.9l-6.673,29.658-9.929.037-8.159-17.257L806.963,239.9l-9.577.029Z"/>
        </g>
        <g id="Grupo_400" data-name="Grupo 400">
          <path id="Caminho_992" data-name="Caminho 992" class="cls-8" d="M804.463,210.234h9.326l8.4,17.3,4.126-17.3H835.9l-6.673,29.658-9.929.037-8.159-17.257L806.963,239.9l-9.577.029Z"/>
        </g>
      </g>
    </g>
  </g>
</svg>
