<svg xmlns="http://www.w3.org/2000/svg"
  xmlns:xlink="http://www.w3.org/1999/xlink" version="1.0" id="Layer_1" x="0px" y="0px" width="1125px" height="732px" viewBox="0 0 1125 732" enable-background="new 0 0 1125 732" xml:space="preserve">
  <defs>
    <style>
      .cls-1 {
        fill: #26a9e0;
      }
      .cls-2 {
        fill: #e71d28;
      }
      .cls-3 {
        fill: #155bcb;
      }
      .cls-4 {
        fill: #ff0;
      }
      .cls-5 {
        fill: #8cc63f;
      }
      .cls-6 {
        fill: #ff8c00;
      }
      .cls-7 {
        fill: #fff;
      }
      .cls-8 {
        fill: #172b75;
      }

      .animation {
        animation: mymove 12s infinite;
        transform-origin: 614.2px 139.98px;
      }

      @keyframes mymove {
        0% {
          -ms-transform: rotate(0);
          -moz-transform: rotate(0);
          -webkit-transform: rotate(0);
          -o-transform: rotate(0);
          transform: rotate(0);
        }
        50% {
          -ms-transform: rotate(-20deg);
          -moz-transform: rotate(-20deg);
          -webkit-transform: rotate(-20deg);
          -o-transform: rotate(-20deg);
          transform: rotate(-20deg);
        }
        100% {
          -ms-transform: rotate(0deg);
          -moz-transform: rotate(0deg);
          -webkit-transform: rotate(0deg);
          -o-transform: rotate(0deg);
          transform: rotate(0deg);
        }
      }
    </style>
  </defs>

  <g>
    <g>
      <g transform="translate(0 20)">
        <path fill="#EBEBFF" d="M1096.64,505.24c11.69-37.87,14.42-78.15,6.04-116.88c-13.11-60.59-55.32-133.94-177.13-165.59     C694.94,162.84,614.86-12.4,399.14,43.41c0,0-115.77,21.04-170.56,212.6C173.79,447.56-40.89,450.82,33.03,617.62     c12.08,27.26,44.61,57,91.32,85.09l874.83-2.94C1059.64,627.08,1078.45,564.2,1096.64,505.24z"/>
      </g>
      <g>
        <path fill="#D6D7F4" d="M890.22,368.24H857.4v-35.9c0-18.03-12.56-33.08-29.39-37v-44.56h-12.08v43.72     c-19.38,1.75-34.57,18.01-34.57,37.84v36.96h-32.65v41.19h-2.2v76.55l-59.35-0.43v-91.48h-68v67.04h-47.71v65.13h-57.66v172.4     h191.58v-0.02h41.15v0.02h240.22V482.29h-96.6L890.22,368.24z"/>
        <polygon fill="#D6D7F4" points="212.93,463 212.93,377.29 245.06,377.29 245.06,331.45 257.14,331.45 257.14,377.29      286.74,377.29 286.74,463 319.95,463 319.95,514.34 372.88,514.34 372.88,339.43 483.37,339.43 483.37,699.7 411.37,699.7      380.35,699.7 302.3,699.7 266.25,699.7 172.06,699.7 172.06,463    "/>
      </g>
      <g transform="translate(0 0)">
        <line fill="none" stroke="rgb(35, 28, 97)" stroke-width="2" stroke-linecap="round" stroke-linejoin="round" stroke-miterlimit="10" x1="150" y1="700" x2="1000" y2="700"/>
      </g>
    </g>
    <g>
      <g>
        <g>
          <path fill="#3D5AC4" d="M816.6,698.82l-503.61,0.4c-19.07,0.01-34.55-15.44-34.57-34.51l0,0l572.69-0.45l0,0      C851.12,683.33,835.68,698.81,816.6,698.82z"/>
          <path fill="#5571E9" d="M816.59,686.93l-503.61,0.39c-14.89,0.01-27.55-9.42-32.41-22.62l-2.15,0.01      c0.02,19.08,15.49,34.52,34.57,34.51l503.61-0.4c19.08-0.01,34.52-15.49,34.51-34.56h-2.15      C844.12,677.47,831.48,686.92,816.59,686.93z"/>
          <path fill="#27429C" d="M597.31,676.02l-65.07,0.05c-6.39,0.01-11.57-5.17-11.57-11.55l0,0l88.19-0.07l0,0      C608.87,670.83,603.7,676.02,597.31,676.02z"/>
        </g>
        <g>
          <path fill="#5571E9" d="M821.64,664.28l-513.74,0.4l-0.24-310.09c-0.01-17.79,14.4-32.22,32.19-32.23l449.32-0.35      c17.79-0.02,32.22,14.4,32.24,32.18L821.64,664.28z"/>
          <rect x="334.52" y="348.97" fill="#312C76" width="460.23" height="288.72"/>
          <polygon fill="#151247" points="794.86,637.51 334.63,637.87 334.61,610.27 794.84,609.92     "/>
          <rect x="334.41" y="348.97" fill="#151247" width="460.23" height="13.7"/>
          <g>
            <polygon opacity="0.16" fill="#5571E9" enable-background="new    " points="487.9,349.03 334.52,502.64 334.63,637.87        334.96,637.87 623.46,348.93      "/>
            <polygon opacity="0.16" fill="#5571E9" enable-background="new    " points="394.05,637.84 462.02,637.78 750.51,348.83        682.55,348.89      "/>
            <polygon opacity="0.16" fill="#5571E9" enable-background="new    " points="740.73,637.56 794.82,583.38 794.74,480.87        632.37,637.62      "/>
          </g>
        </g>
      </g>
      <g>
        <g>
          <rect id="XMLID_55_" x="307.65" y="472.29" fill="#F5D100" width="513.99" height="56.74"/>
        </g>
        <g>
          <defs>
            <rect id="SVGID_2134_" x="307.65" y="472.29" width="513.99" height="56.74"/>
          </defs>
          <clipPath id="SVGID_1_">
            <use xlink:href="#SVGID_2134_" overflow="visible"/>
          </clipPath>
          <polygon clip-path="url(#SVGID_1_)" fill="#FFFFFF" points="371.78,548.94 327.55,548.94 365.62,461.86 409.84,461.86     "/>
        </g>
        <g>
          <defs>
            <rect id="SVGID_2136_" x="307.65" y="472.29" width="513.99" height="56.74"/>
          </defs>
          <clipPath id="SVGID_2_">
            <use xlink:href="#SVGID_2136_" overflow="visible"/>
          </clipPath>
          <polygon clip-path="url(#SVGID_2_)" fill="#FFFFFF" points="466.08,548.94 421.86,548.94 459.93,461.86 504.15,461.86     "/>
        </g>
        <g>
          <defs>
            <rect id="SVGID_2138_" x="307.65" y="472.29" width="513.99" height="56.74"/>
          </defs>
          <clipPath id="SVGID_3_">
            <use xlink:href="#SVGID_2138_" overflow="visible"/>
          </clipPath>
          <polygon clip-path="url(#SVGID_3_)" fill="#FFFFFF" points="560.4,548.94 516.17,548.94 554.24,461.86 598.46,461.86     "/>
        </g>
        <g>
          <defs>
            <rect id="SVGID_2140_" x="307.65" y="472.29" width="513.99" height="56.74"/>
          </defs>
          <clipPath id="SVGID_4_">
            <use xlink:href="#SVGID_2140_" overflow="visible"/>
          </clipPath>
          <polygon clip-path="url(#SVGID_4_)" fill="#FFFFFF" points="654.71,548.94 610.48,548.94 648.55,461.86 692.77,461.86     "/>
        </g>
        <g>
          <defs>
            <rect id="SVGID_2142_" x="307.65" y="472.29" width="513.99" height="56.74"/>
          </defs>
          <clipPath id="SVGID_5_">
            <use xlink:href="#SVGID_2142_" overflow="visible"/>
          </clipPath>
          <polygon clip-path="url(#SVGID_5_)" fill="#FFFFFF" points="749.02,548.94 704.79,548.94 742.86,461.86 787.08,461.86     "/>
        </g>
      </g>
    </g>
    <g>
      <g>
        <g>
          <g>
            <g>
              <path fill="#14103D" d="M266.38,374.33l-10.05,0.38l-5.88-1.86c-2.7-0.86-5.65,0.17-7.23,2.52l-0.74,1.1l29.37,16.23        l5.68-12.18L266.38,374.33z"/>
              <path fill="#14103D" d="M271.87,392.94l-29.6-16.35l1.04-1.87c0.2-0.37,0.67-0.5,1.04-0.3l28.94,15.98L271.87,392.94"/>
            </g>
            <polygon fill="#EB8175" points="277.54,380.51 285.3,367.08 277.54,353.22 266.38,374.33      "/>
          </g>
          <path fill="#14103D" d="M338.34,303.26c0,0-41.86-12.01-45.89-0.71c-4.03,11.3-28.45,61.3-28.45,61.3l18.23,9.51l27.34-47.49      l36.79-3.2L338.34,303.26z"/>
        </g>
        <g>
          <g>
            <g>
              <path fill="#14103D" d="M304.31,389.56l-8.2,5.22l-6.05,1.22c-2.78,0.56-4.86,2.89-5.1,5.71l-0.12,1.32l33.56-0.06        l-0.94-13.41L304.31,389.56z"/>
              <path fill="#14103D" d="M318.54,403.21l-33.82,0.06l0-2.14c0-0.42,0.34-0.77,0.76-0.77l33.06-0.05L318.54,403.21"/>
            </g>
            <polygon fill="#EB8175" points="317.46,389.58 318.54,367.08 305.17,365.57 304.31,389.56      "/>
          </g>
          <path fill="#231C61" d="M343.99,301.34l-39.45,1.8c0,0-5.68,0.31-5.3,13.59c0.38,13.28,0.35,66.73,0.35,66.73l18.95,0.66      l3.63-55.99l39.49-0.49c8.32-0.1,16.07-4.88,19.36-12.52c1.26-2.92,1.86-6.2,1.09-9.65L343.99,301.34z"/>
        </g>
      </g>
      <g>
        <g>
          <g>
            <path fill="#E1AD9D" d="M306.55,293.38c0.01,3.74-2.53,4.31-6.27,4.32c-3.74,0.01-7.28-0.55-7.28-4.29       c-0.01-3.74,3.02-6.79,6.77-6.79C303.5,286.61,306.54,289.64,306.55,293.38z"/>
            <path fill="#E1AD9D" d="M311.31,297.21l-7.84,0.02c-2.04,0-3.72-1.67-3.73-3.71l0,0c-0.01-2.05,1.67-3.73,3.71-3.73l7.84-0.02       c2.05,0,3.72,1.67,3.73,3.71l0,0C315.03,295.53,313.36,297.21,311.31,297.21z"/>
          </g>
          <path fill="#C8C6F2" d="M311.01,298l-2.61-12.82l32.21-3.51l6.44-37.63c0.65-3.42,5.6-7.66,9.02-7.01l-0.99-0.28      c3.42,0.65,6.56,4.62,5.91,8.04l-6.27,45.02c-0.46,2.43-2.3,4.36-4.71,4.95L311.01,298z"/>
        </g>
        <path fill="#D8D7FD" d="M375.35,237.85c0.67,0.05,1.32,0.2,1.94,0.45l0.32,0.13c5.53,2.16,9.27,8.09,9.53,13.65l-5.04,53.4     c-33.38-0.29-38.12-4.13-38.12-4.13l2.65-54.62c0.4-5.15,2.77-10,8.64-10.48l0,0L375.35,237.85z"/>
        <g>
          <g>
            <g>
              <path fill="#EB8175" d="M338.6,297.58c0.26,3.74-2.24,4.47-5.97,4.72c-3.74,0.26-7.3-0.06-7.55-3.8        c-0.26-3.73,2.56-6.97,6.3-7.23C335.11,291.03,338.34,293.85,338.6,297.58z"/>
              <path fill="#EB8175" d="M343.61,301.08l-7.82,0.54c-2.04,0.14-3.83-1.42-3.97-3.46l0,0c-0.14-2.04,1.41-3.83,3.46-3.97        l7.82-0.54c2.04-0.14,3.83,1.42,3.97,3.46l0,0C347.2,299.16,345.65,300.94,343.61,301.08z"/>
            </g>
            <path fill="#D8D7FD" d="M343.35,301.9l-3.46-12.62l35.1-5.64l-2-32.64c0.42-3.46,4.21-7.34,7.67-6.92l0,0       c3.46,0.42,6.86,4.18,6.44,7.63l2.53,39.11c-0.3,2.45-2,4.51-4.36,5.25L343.35,301.9z"/>
          </g>
        </g>
        <g>
          <path fill="#091218" d="M282.62,258.53l38.3,3.61c1.26,0.12,2.26,1.1,2.41,2.36l4.02,34.51c0.2,1.69-1.22,3.14-2.92,2.98      l-38.93-3.67c-1.28-0.12-2.29-1.13-2.42-2.41l-3.38-34.45C279.53,259.78,280.94,258.37,282.62,258.53z"/>
          <path fill="#1B2934" d="M280.41,258.32l38.3,3.61c1.26,0.12,2.26,1.1,2.41,2.36l4.02,34.52c0.2,1.69-1.22,3.14-2.91,2.98      l-38.94-3.67c-1.28-0.12-2.29-1.13-2.41-2.41l-3.38-34.45C277.33,259.57,278.73,258.16,280.41,258.32z"/>
          <path fill="#091218" d="M326.29,299.25l26.17,2.47c0.8,0.07,1.38,0.78,1.31,1.58l0,0c-0.08,0.8-0.78,1.38-1.58,1.31l-27.75-2.52      L326.29,299.25z"/>
          <circle fill="#FFFFFF" cx="298.19" cy="278.87" r="4.19"/>
        </g>
        <polygon fill="#C8C6F2" points="371.78,258.52 372.65,283.06 339.9,289.27 368.76,280.26    "/>
      </g>
      <g>
        <g>
          <path fill="#EB8175" d="M354.41,234.6l2.19,5.87c0.79,2.12,2.75,3.58,5,3.73l0,0c4.28,0.29,7.37-4.04,5.68-8l-3.84-9.02      L354.41,234.6z"/>
          <path fill="#E16C5F" d="M356.36,239.83c0,0,10.79-2.04,9.2-11.47c-1.58-9.43-11.73-2.07-11.73-2.07l0.99,9.41L356.36,239.83z"/>
          <g>
            <g>
              <g>
                <circle id="XMLID_54_" fill="#EB8175" cx="355.05" cy="218.78" r="16.92"/>
              </g>
              <g>
                <defs>
                  <circle id="SVGID_2144_" cx="355.05" cy="218.78" r="16.92"/>
                </defs>
                <clipPath id="SVGID_6_">
                  <use xlink:href="#SVGID_2144_" overflow="visible"/>
                </clipPath>
                <path clip-path="url(#SVGID_6_)" fill="#231C61" d="M361.33,222.11c0,0-2.66,13.55,7.3,13.85c9.96,0.3,4.54-25.42,4.54-25.42         l-15.77-15.87l-24.13,5.94l2.4,15.6c0,0,3.84,2.04,24.58-1.38L361.33,222.11z"/>
              </g>
              <g>
                <defs>
                  <circle id="SVGID_2146_" cx="355.05" cy="218.78" r="16.92"/>
                </defs>
                <clipPath id="SVGID_7_">
                  <use xlink:href="#SVGID_2146_" overflow="visible"/>
                </clipPath>
                <polygon clip-path="url(#SVGID_7_)" fill="#231C61" points="351.48,211.51 359.4,223.1 366.24,215.55        "/>
              </g>
            </g>
            <circle fill="#EB8175" cx="363" cy="220.99" r="4.78"/>
          </g>
        </g>
        <g>
          <path fill="#F5D100" d="M336.43,215.95c0,0-3.66-13.34,4.99-21.59c7.13-6.81,18.79-6.37,25.12,1.19      c2.97,3.55,5.36,8.89,5.58,16.93L336.43,215.95z"/>
          <path fill="none" stroke="#F1AB00" stroke-width="0.2802" stroke-miterlimit="10" d="M338.27,215.73l-0.1-8.32      c-0.03-2.11,1.63-3.86,3.73-3.97l0,0c2.08-0.1,3.88,1.45,4.08,3.52l0.83,8.31"/>
          <line fill="none" stroke="#FFFFFF" stroke-width="1.1206" stroke-linecap="round" stroke-linejoin="round" stroke-miterlimit="10" x1="372.12" y1="212.48" x2="333.29" y2="216.21"/>
        </g>
      </g>
    </g>
    <g transform="scale(-1, 1) translate(-1300 0)">
      <g>
        <g>
          <polygon fill="#EB8175" points="725.63,662.38 734.33,670.81 724.41,676.15 715.91,667.82     "/>
          <path fill="#14103D" d="M664.36,599.39l5.82,25.74c1.17,5.15,3.41,10.11,6.63,14.65l38.29,34.39l15.14-12.33l-32.69-34.61      l-11.98-45.65L664.36,599.39z"/>
          <g>
            <path fill="#14103D" d="M724.12,675.9l-3.14,10l-3.58,4.99c-1.65,2.29-1.59,5.39,0.15,7.62l0.81,1.04l24.43-22.76l-9.77-9.14       L724.12,675.9z"/>
            <polyline fill="#14103D" points="743.04,676.86 718.41,699.8 716.44,697.69 741.06,674.75 743.04,676.86      "/>
          </g>
        </g>
        <g>
          <polygon fill="#EB8175" points="641.91,678.04 638.65,688.94 627.44,685.93 630.71,675.22     "/>
          <path fill="#231C61" d="M656.94,570.68l-31.4,106.16l19.81,4.95l17.68-53.22l21.72-34.82c1.1-1.55,2.19-3.18,3.1-4.86      c1.74-3.19,2.52-6.66,2.48-10.14l-0.08-6.9L656.94,570.68z"/>
          <g>
            <path fill="#14103D" d="M628.09,684.88l-9.91,3.66l-6.18,0.21c-2.84,0.1-5.28,2.06-5.98,4.81l-0.33,1.29l33.19,5.47l1.27-13.42       L628.09,684.88z"/>
            <polyline fill="#14103D" points="638.96,700.55 605.51,695.05 605.99,692.17 639.44,697.67 638.96,700.55      "/>
          </g>
        </g>
      </g>
      <g>
        <g>
          <g>
            <polygon fill="#334FBE" points="613.11,462.85 600.42,482.66 606.5,487.03 619.64,466.07      "/>
            <path fill="#4265D1" d="M596.63,430.04c0,0,5.87,24.55,35.58,34.21c0.86,0.28,1.51,1,1.63,1.89c0.38,2.84,0.38,8.99-6.19,10.81       c-0.62,0.17-1.31,0.04-1.86-0.3c-4.54-2.84-26.9-15.91-48.6-12.15L596.63,430.04z"/>
            <path fill="#334FBE" d="M596.63,430.04c0,0-5.45,24.49-19.44,34.47C577.19,464.5,579.16,443.04,596.63,430.04z"/>
          </g>
          <g>
            <g>
              <g>
                <path fill="#EB8175" d="M596.28,481.37c-0.92,4.51,2.79,10,7.29,10.93c4.51,0.92,8.9-1.99,9.83-6.49         c0.92-4.51-2.79-10-7.29-10.92C601.6,473.96,597.2,476.87,596.28,481.37z"/>
              </g>
              <polyline fill="#EB8175" points="620.13,494.6 611.33,485.41 605.58,492.48 620.13,503.14       "/>
            </g>
            <path fill="#C8C6F2" d="M618.73,486.1l-9.3,13.83l25.43,23.28c1.55,0.44,3.17,0.59,4.78,0.46l33.58-4.35       c5.29-0.25,9.38-4.75,9.13-10.04l0,0c-0.25-5.29,0.76-12.95-4.53-12.7l-39.01,8.01L618.73,486.1z"/>
          </g>
        </g>
        <g>
          <g>
            <path fill="#D8D7FD" d="M694.04,517.83c0.9-7.34-2.43-14.6-8.66-18.58c-2.79-1.79-5.57-3-7.56-2.66       c-6.7,1.13-13.58,4.17-16.53,13.21c-5.01,15.37-6.44,60.82-6.44,60.82l36,1.22L694.04,517.83z"/>
          </g>
          <polygon fill="#C8C6F2" points="680.76,518.97 691.58,558.75 693.77,525     "/>
        </g>
        <g>
          <g>
            <g>
              <path fill="#EB8175" d="M724.87,597.46c3.4-3.09,3.65-9.72,0.56-13.13c-3.09-3.4-8.36-3.65-11.76-0.56        c-3.41,3.09-3.65,9.72-0.56,13.13C716.2,600.3,721.47,600.55,724.87,597.46z"/>
            </g>
            <polyline fill="#EB8175" points="708.54,569.13 715.1,585.32 723.92,583 718.47,565.81      "/>
          </g>
          <path fill="#D8D7FD" d="M708.96,581.62l18.03-3.96l-12.22-41.81c-0.46-1.55-1.19-3-2.16-4.29l-22.44-27.94      c-3.03-4.34-8.14-3.57-12.49-0.54l0,0c-4.34,3.03-5.41,9.01-2.38,13.36l21.61,25.98L708.96,581.62z"/>
        </g>
      </g>
      <g>
        <g>
          <path fill="#EB8175" d="M669.39,491.11l0.68,6.3c0.25,2.27,1.8,4.2,3.98,4.91l0,0c4.12,1.35,8.23-2.13,7.56-6.43l-1.52-9.8      L669.39,491.11z"/>
          <path fill="#E16C5F" d="M670,496.73c0,0,11.12-0.37,11.91-10c0.79-9.64-11.02-3.9-11.02-3.9l-1.38,9.47L670,496.73z"/>
          <g>
            <g>
              <g>
                <path id="XMLID_53_" fill="#EB8175" d="M660.72,464.92c-5.99,7.31-4.91,18.09,2.4,24.08c7.31,5.99,18.09,4.91,24.08-2.4         c5.99-7.31,4.92-18.09-2.4-24.08C677.49,456.53,666.71,457.6,660.72,464.92z"/>
              </g>
              <g>
                <defs>
                  <path id="SVGID_2148_" d="M660.72,464.92c-5.99,7.31-4.91,18.09,2.4,24.08c7.31,5.99,18.09,4.91,24.08-2.4          c5.99-7.31,4.92-18.09-2.4-24.08C677.49,456.53,666.71,457.6,660.72,464.92z"/>
                </defs>
                <clipPath id="SVGID_8_">
                  <use xlink:href="#SVGID_2148_" overflow="visible"/>
                </clipPath>
                <path clip-path="url(#SVGID_8_)" fill="#231C61" d="M679.28,480.59c0,0-5.99,12.62,3.71,15.39         c9.69,2.77,10.78-23.79,10.78-23.79l-11.51-19.48l-25.13-0.19l-1.54,15.89c0,0,3.25,2.95,24.44,4.76L679.28,480.59z"/>
              </g>
              <g>
                <defs>
                  <path id="SVGID_2150_" d="M660.72,464.92c-5.99,7.31-4.91,18.09,2.4,24.08c7.31,5.99,18.09,4.91,24.08-2.4          c5.99-7.31,4.92-18.09-2.4-24.08C677.49,456.53,666.71,457.6,660.72,464.92z"/>
                </defs>
                <clipPath id="SVGID_9_">
                  <use xlink:href="#SVGID_2150_" overflow="visible"/>
                </clipPath>
                <polygon clip-path="url(#SVGID_9_)" fill="#231C61" points="672.27,467.74 677.15,481.08 685.73,475.38        "/>
              </g>
            </g>
            <path fill="#EB8175" d="M677.45,476.84c-1.69,2.07-1.39,5.12,0.68,6.81c2.07,1.69,5.12,1.39,6.81-0.68       c1.69-2.06,1.39-5.12-0.68-6.8C682.19,474.47,679.15,474.78,677.45,476.84z"/>
          </g>
        </g>
        <g>
          <path fill="#F5D100" d="M656.31,469.82c0,0-0.84-13.96,9.44-20.33c8.48-5.25,19.92-2.38,24.61,6.42      c2.2,4.13,3.45,9.92,1.99,17.92L656.31,469.82z"/>
          <path fill="none" stroke="#F1AB00" stroke-width="0.2834" stroke-miterlimit="10" d="M658.17,469.99l1.63-8.26      c0.42-2.09,2.42-3.49,4.52-3.14l0,0c2.08,0.34,3.53,2.24,3.31,4.34l-0.91,8.4"/>

          <line fill="none" stroke="#FFFFFF" stroke-width="1.1334" stroke-linecap="round" stroke-linejoin="round" stroke-miterlimit="10" x1="692.35" y1="473.83" x2="653.15" y2="469.42"/>
        </g>
      </g>
    </g>
    <g>
      <g>
        <line fill="none" stroke="#3D5AC4" stroke-width="2.6489" stroke-miterlimit="10" x1="931.64" y1="575.29" x2="891.08" y2="615.29"/>
        <line fill="none" stroke="#3D5AC4" stroke-width="2.6489" stroke-miterlimit="10" x1="931.64" y1="532.57" x2="891.08" y2="572.55"/>
        <line fill="none" stroke="#3D5AC4" stroke-width="2.6489" stroke-miterlimit="10" x1="931.64" y1="489.83" x2="891.08" y2="529.82"/>
        <line fill="none" stroke="#3D5AC4" stroke-width="2.6489" stroke-miterlimit="10" x1="931.64" y1="447.1" x2="891.08" y2="487.09"/>
        <line fill="none" stroke="#3D5AC4" stroke-width="2.6489" stroke-miterlimit="10" x1="931.64" y1="404.36" x2="891.08" y2="444.36"/>
        <line fill="none" stroke="#3D5AC4" stroke-width="2.6489" stroke-miterlimit="10" x1="931.64" y1="361.63" x2="891.08" y2="401.62"/>
        <line fill="none" stroke="#3D5AC4" stroke-width="2.6489" stroke-miterlimit="10" x1="931.64" y1="318.9" x2="891.08" y2="358.89"/>
        <line fill="none" stroke="#3D5AC4" stroke-width="2.6489" stroke-miterlimit="10" x1="931.64" y1="276.16" x2="891.08" y2="316.15"/>
        <line fill="none" stroke="#3D5AC4" stroke-width="2.6489" stroke-miterlimit="10" x1="931.64" y1="233.43" x2="891.08" y2="273.42"/>
        <line fill="none" stroke="#3D5AC4" stroke-width="2.6489" stroke-miterlimit="10" x1="931.64" y1="190.7" x2="891.08" y2="230.69"/>
        <line fill="none" stroke="#3D5AC4" stroke-width="2.6489" stroke-miterlimit="10" x1="931.64" y1="147.96" x2="891.08" y2="187.95"/>
        <line fill="none" stroke="#3D5AC4" stroke-width="2.6489" stroke-miterlimit="10" x1="891.08" y1="572.55" x2="931.64" y2="572.55"/>
        <line fill="none" stroke="#3D5AC4" stroke-width="2.6489" stroke-miterlimit="10" x1="891.08" y1="529.82" x2="931.64" y2="529.82"/>
        <line fill="none" stroke="#3D5AC4" stroke-width="2.6489" stroke-miterlimit="10" x1="891.08" y1="487.09" x2="931.64" y2="487.09"/>
        <line fill="none" stroke="#3D5AC4" stroke-width="2.6489" stroke-miterlimit="10" x1="891.08" y1="444.36" x2="931.64" y2="444.36"/>
        <line fill="none" stroke="#3D5AC4" stroke-width="2.6489" stroke-miterlimit="10" x1="891.08" y1="401.62" x2="931.64" y2="401.62"/>
        <line fill="none" stroke="#3D5AC4" stroke-width="2.6489" stroke-miterlimit="10" x1="891.08" y1="358.89" x2="931.64" y2="358.89"/>
        <line fill="none" stroke="#3D5AC4" stroke-width="2.6489" stroke-miterlimit="10" x1="891.08" y1="316.15" x2="931.64" y2="316.15"/>
        <line fill="none" stroke="#3D5AC4" stroke-width="2.6489" stroke-miterlimit="10" x1="891.08" y1="273.42" x2="931.64" y2="273.42"/>
        <line fill="none" stroke="#3D5AC4" stroke-width="2.6489" stroke-miterlimit="10" x1="891.08" y1="230.69" x2="931.64" y2="230.69"/>
        <line fill="none" stroke="#3D5AC4" stroke-width="2.6489" stroke-miterlimit="10" x1="891.08" y1="187.95" x2="931.64" y2="187.95"/>
        <line fill="none" stroke="#5571E9" stroke-width="2.6489" stroke-miterlimit="10" x1="891.08" y1="626.87" x2="891.08" y2="154.8"/>
        <line fill="none" stroke="#5571E9" stroke-width="2.6489" stroke-miterlimit="10" x1="931.64" y1="626.87" x2="931.64" y2="154.8"/>
        <rect x="870.17" y="615.29" fill="#231C61" width="80.78" height="83.93"/>
      </g>
      <g>
        <g>
          <path fill="#3D5AC4" d="M931.75,154.8h-42.22c-7.45,0-13.49-6.04-13.49-13.49V88.35c0-7.45,6.04-13.49,13.49-13.49h42.22      c7.45,0,13.49,6.04,13.49,13.49v52.96C945.24,148.76,939.2,154.8,931.75,154.8z"/>
          <path fill="#2F4DAB" d="M909.52,131.54h-27.17v-37.4h27.17c5.65,0,10.22,4.58,10.22,10.22v16.96      C919.74,126.96,915.17,131.54,909.52,131.54z"/>
        </g>
        <g>
          <g class="animation">
            <!-- transform="rotate(-20 610 130)"> -->
            <line fill="none" stroke="#231C61" stroke-width="2.1624" stroke-miterlimit="10" x1="623.46" y1="159.16" x2="655.91" y2="253.43"/>
            <line fill="none" stroke="#231C61" stroke-width="2.1624" stroke-miterlimit="10" x1="600.89" y1="147.96" x2="537.61" y2="233.43"/>
            <g>
              <path fill="#F5D100" d="M619.78,189.9l65.39,85.5c7.19,9.41,5.4,22.87-4.01,30.06l-85.51,65.38c-9.41,7.2-22.87,5.4-30.06-4        l-65.39-85.51c-7.19-9.41-5.4-22.87,4.01-30.06l85.5-65.39C599.13,178.7,612.59,180.49,619.78,189.9z"/>
              <path fill="none" stroke="#231C61" stroke-width="1.1138" stroke-miterlimit="10" d="M614.86,205.99l53.5,69.96        c5.89,7.7,4.42,18.71-3.28,24.59l-69.96,53.5c-7.7,5.89-18.71,4.42-24.6-3.28l-53.5-69.96c-5.89-7.7-4.42-18.71,3.28-24.6        l69.96-53.5C597.96,196.82,608.97,198.29,614.86,205.99z"/>
              <g>
                <path fill="#231C61" d="M598.24,310.28c-1.69,12.7-20.96,10.13-19.27-2.57C580.68,294.9,599.94,297.47,598.24,310.28z          M606.52,239.36l-7.56,53.36l-16.2-2.16c2.4-17.95,4.39-35.4,6.79-53.46L606.52,239.36z"/>
              </g>
            </g>
          </g>
          <g>
            <g>
              <circle fill="#231C61" cx="614.2" cy="139.98" r="27.13"/>
              <circle fill="#373482" cx="614.2" cy="139.98" r="19.18"/>
            </g>
            <g>
              <line fill="none" stroke="#3D5AC4" stroke-width="2.6489" stroke-miterlimit="10" x1="720.58" y1="17.37" x2="720.58" y2="74.87"/>
              <line fill="none" stroke="#3D5AC4" stroke-width="2.6489" stroke-miterlimit="10" x1="669.01" y1="17.37" x2="669.01" y2="74.87"/>
              <line fill="none" stroke="#3D5AC4" stroke-width="2.6489" stroke-miterlimit="10" x1="771.97" y1="17.37" x2="771.97" y2="74.87"/>
              <line fill="none" stroke="#3D5AC4" stroke-width="2.6489" stroke-miterlimit="10" x1="829.08" y1="17.37" x2="829.08" y2="74.87"/>
              <line fill="none" stroke="#3D5AC4" stroke-width="2.6489" stroke-miterlimit="10" x1="882.35" y1="17.37" x2="882.35" y2="74.87"/>
              <line fill="none" stroke="#3D5AC4" stroke-width="2.6489" stroke-miterlimit="10" x1="937.58" y1="17.37" x2="937.58" y2="74.87"/>
              <line fill="none" stroke="#3D5AC4" stroke-width="2.6489" stroke-miterlimit="10" x1="991.83" y1="17.37" x2="991.83" y2="74.87"/>
              <line fill="none" stroke="#3D5AC4" stroke-width="2.6489" stroke-miterlimit="10" x1="666.33" y1="74.87" x2="720.58" y2="17.37"/>
              <line fill="none" stroke="#3D5AC4" stroke-width="2.6489" stroke-miterlimit="10" x1="720.58" y1="74.87" x2="774.83" y2="17.37"/>
              <line fill="none" stroke="#3D5AC4" stroke-width="2.6489" stroke-miterlimit="10" x1="774.83" y1="74.87" x2="829.08" y2="17.37"/>
              <line fill="none" stroke="#3D5AC4" stroke-width="2.6489" stroke-miterlimit="10" x1="829.08" y1="74.87" x2="883.33" y2="17.37"/>
              <line fill="none" stroke="#3D5AC4" stroke-width="2.6489" stroke-miterlimit="10" x1="883.33" y1="74.87" x2="937.58" y2="17.37"/>
              <line fill="none" stroke="#3D5AC4" stroke-width="2.6489" stroke-miterlimit="10" x1="937.58" y1="74.87" x2="991.83" y2="17.37"/>
              <polygon fill="none" stroke="#5571E9" stroke-width="2.6489" stroke-linecap="round" stroke-linejoin="round" stroke-miterlimit="10" points="        614.2,74.87 1056.52,74.87 996.96,17.37 659.96,17.37       "/>
              <line fill="none" stroke="#5571E9" stroke-width="2.6489" stroke-linecap="round" stroke-linejoin="round" stroke-miterlimit="10" x1="614.2" y1="74.87" x2="614.2" y2="139.98"/>
            </g>
          </g>
        </g>
      </g>
    </g>
    <g>
      <g>
        <g>
          <g>
            <path id="XMLID_52_" fill="#F5D100" d="M380.35,691.45l30.96-80.02c1.47-3.81,6.88-3.81,8.35,0l30.96,80.02H380.35z"/>
          </g>
          <g>
            <defs>
              <path id="SVGID_2152_" d="M380.35,691.45l30.96-80.02c1.47-3.81,6.88-3.81,8.35,0l30.96,80.02H380.35z"/>
            </defs>
            <clipPath id="SVGID_10_">
              <use xlink:href="#SVGID_2152_" overflow="visible"/>
            </clipPath>
            <rect x="387.52" y="628.63" clip-path="url(#SVGID_10_)" fill="#FAFAFA" width="54.97" height="16.99"/>
          </g>
          <g>
            <defs>
              <path id="SVGID_2154_" d="M380.35,691.45l30.96-80.02c1.47-3.81,6.88-3.81,8.35,0l30.96,80.02H380.35z"/>
            </defs>
            <clipPath id="SVGID_11_">
              <use xlink:href="#SVGID_2154_" overflow="visible"/>
            </clipPath>
            <rect x="384.52" y="660.73" clip-path="url(#SVGID_11_)" fill="#FAFAFA" width="62.18" height="16.99"/>
          </g>
        </g>
        <rect x="374.69" y="691.45" fill="#E8C400" width="81.95" height="6.74"/>
      </g>
      <g>
        <g>
          <g>
            <path id="XMLID_49_" fill="#F5D100" d="M829.94,691.7l30.96-80.02c1.48-3.82,6.88-3.82,8.35,0l30.96,80.02H829.94z"/>
          </g>
          <g>
            <defs>
              <path id="SVGID_2156_" d="M829.94,691.7l30.96-80.02c1.48-3.82,6.88-3.82,8.35,0l30.96,80.02H829.94z"/>
            </defs>
            <clipPath id="SVGID_12_">
              <use xlink:href="#SVGID_2156_" overflow="visible"/>
            </clipPath>
            <rect x="837.11" y="628.88" clip-path="url(#SVGID_12_)" fill="#FAFAFA" width="54.97" height="16.98"/>
          </g>
          <g>
            <defs>
              <path id="SVGID_2158_" d="M829.94,691.7l30.96-80.02c1.48-3.82,6.88-3.82,8.35,0l30.96,80.02H829.94z"/>
            </defs>
            <clipPath id="SVGID_13_">
              <use xlink:href="#SVGID_2158_" overflow="visible"/>
            </clipPath>
            <rect x="834.11" y="660.98" clip-path="url(#SVGID_13_)" fill="#FAFAFA" width="62.17" height="16.98"/>
          </g>
        </g>
        <rect x="824.29" y="691.7" fill="#E8C400" width="81.94" height="6.74"/>
      </g>
    </g>
    <g>
      <g xmlns="http://www.w3.org/2000/svg" id="Grupo_197" data-name="Grupo 197">
        <path id="Caminho_489" fill="rgb(35, 28, 97)" transform="translate(0 228)" d="M269.543,341.129,217.672,388.6l-.442-14.946,20.349-41.3s-3.434-1.35-3.65-.973l-17.145,31.274c-2.026-68.376-1.6-66.062-2.26-66.062-.69,0-.392-1.016-1.191,25.906l-11.268-9.875a.818.818,0,0,0-1.184,1.117l9.813,15.64-.3,92.482L189.643,395l-.784-34.125c-.112-1.931-4.18-1.708-4.3.227l.146,27.847-24.58-32.181c-.607-.783-3.59.013-3.048.838l52.907,78.085-1.695,36.244h12.477l-2.743-71.649,17.739-19.708,20.408.127a1.332,1.332,0,0,0,.237-2.643l-15.9-2.76,29.948-33.269A.643.643,0,0,0,269.543,341.129Z"/>
        <circle id="Elipse_10" fill="#5571E9" cx="49.103" cy="49.103" r="49.103" transform="translate(169.22 475)"/>
        <path id="Caminho_490" fill="#5571E9" transform="translate(0 228)" d="M196.064,349.347a30.379,30.379,0,1,1-30.379-30.377A30.381,30.381,0,0,1,196.064,349.347Z"/>
        <circle id="Elipse_11" fill="#5571E9" cx="28.448" cy="28.448" r="28.448" transform="translate(230.397 542)"/>
      </g>
    </g>
    <g transform="translate(150 365)">
      <g id="Grupo_403" data-name="Grupo 403" transform="translate(-455.194 -163.326)">
        <g id="Grupo_388" data-name="Grupo 388">
          <circle id="Elipse_15" data-name="Elipse 15" class="cls-1" cx="11.431" cy="11.431" r="11.431" transform="translate(705.052 164.908)"/>
          <g id="Grupo_387" data-name="Grupo 387">
            <path id="Caminho_971" data-name="Caminho 971" class="cls-2" d="M692.608,230.925l-24.882,29.04a2.858,2.858,0,0,0,3.4,4.439l48.816-23.274-18.45-11.185C698.311,230.215,695.322,230.542,692.608,230.925Z"/>
            <path id="Caminho_972" data-name="Caminho 972" class="cls-3" d="M719.942,241.13l32.317,19.59a2.858,2.858,0,0,0,4.28-3.023l-5.618-27.153c-2.288-.272-4.734-.508-7.293-.707Z"/>
            <path id="Caminho_973" data-name="Caminho 973" class="cls-1" d="M723.231,229.077c-7.636,0-15.11.306-21.739.868l18.45,11.185,23.686-11.293C737.328,229.344,730.333,229.077,723.231,229.077Z"/>
            <path id="Caminho_974" data-name="Caminho 974" class="cls-4" d="M716.773,206.2,687.5,188.177a2.858,2.858,0,0,0-4.181,3.417L695.2,224.01c1.336-.155,2.734-.295,4.158-.427Z"/>
            <path id="Caminho_975" data-name="Caminho 975" class="cls-5" d="M758.881,164.173,716.773,206.2l27.875,17.16c2.118.171,4.164.367,6.116.589l12.923-57.122A2.858,2.858,0,0,0,758.881,164.173Z"/>
            <path id="Caminho_976" data-name="Caminho 976" class="cls-6" d="M723.231,222.545c7.561,0,14.849.283,21.417.814L716.773,206.2l-17.417,17.384C706.57,222.915,714.811,222.545,723.231,222.545Z"/>
            <path id="Caminho_977" data-name="Caminho 977" class="cls-7" d="M723.231,222.545c-8.42,0-16.661.37-23.875,1.038-1.424.132-2.822.272-4.158.427h0l1,2.725-3.59,4.19h0c2.714-.383,5.7-.71,8.884-.98,6.629-.562,14.1-.868,21.739-.868,7.1,0,14.1.267,20.4.76,2.559.2,5.005.435,7.293.707h0l-.788-3.809.631-2.787h0c-1.952-.222-4-.418-6.116-.589C738.08,222.828,730.792,222.545,723.231,222.545Z"/>
          </g>
        </g>
      </g>
    </g>
  </g>
</svg>